<svg xmlns="http://www.w3.org/2000/svg" viewBox="0 0 800 800" width="1024" height="1024">
<defs>
  <linearGradient id="crimsonPage" x1="0%" y1="0%" x2="0%" y2="100%">
    <stop offset="0%" stop-color="#4a0012" />
    <stop offset="100%" stop-color="#1f0008" />
  </linearGradient>
  <linearGradient id="crimsonShadow" x1="0%" y1="0%" x2="100%" y2="100%">
    <stop offset="30%" stop-color="#8a0020" />
    <stop offset="50%" stop-color="#4a0012" />
  </linearGradient>
</defs>

<!-- Dark crimson book/page shape (same geometry as before) -->
<path fill="url(#crimsonPage)" d="M744 488c37-38 42-48 50-99 5-37 5-35 6-219V40A40 40 0 00760 0H40A40 40 0 000 40V760a40 40 0 0040 40H170c184-1 182-1 219-6 51-8 61-13 99-50Z"/>

<!-- Stylised "D" with devil horn — outer D + inner hollow (evenodd) -->
<path fill="#e83540" fill-rule="evenodd" d="M250 195 L360 195 A210 205 0 0 1 570 400 A210 205 0 0 1 360 605 L250 605 Z M360 265 A140 135 0 0 1 500 400 A140 135 0 0 1 360 535 Z"/>

<!-- Devil horn curling from the top of the D -->
<path fill="#e83540" d="M338 198 C322 162 312 118 330 86 C342 62 368 66 368 96 C368 118 354 160 342 196 Z"/>

<!-- Dark corner shadow (same geometry as before) -->
<path fill="url(#crimsonShadow)" d="M488 744C512 720 530 650 540 580A40 40 0 01580 540C650 530 720 512 744 488Z"/>
</svg>
